<svg width="22px" height="34px" viewBox="0 0 22 34" version="1.1" xmlns="http://www.w3.org/2000/svg">
    <g stroke="none" stroke-width="1" fill="none" fill-rule="evenodd">
        <path d="M21.6546488,16.5720042 C19.6622212,14.6274407 19.169608,11.6114412 20.4397727,9.13398762 C21.1389055,7.79823281 21.1511037,6.2073331 20.4725357,4.86101479 C19.7939676,3.51469649 18.507892,2.57814953 17.0182851,2.34555787 C16.6035887,2.29030259 16.1833948,2.29030259 15.7686984,2.34555787 C14.4134872,2.50483842 13.0598776,2.03536787 12.0943182,1.07117771 L11.1571281,0.109194235 C11.0102318,-0.0363980783 10.7734459,-0.0363980783 10.6265496,0.109194235 L9.66952481,1.06126035 C8.70578461,2.02906386 7.35193481,2.50227182 5.99514465,2.34555787 C4.27987595,2.15631552 2.59960555,2.92615445 1.62284039,4.34878906 C0.64607523,5.77142366 0.531258291,7.6160856 1.32407027,9.14886366 C2.59423504,11.6263172 2.10162179,14.6423167 0.109194235,16.5868802 C-0.0363980783,16.7337765 -0.0363980783,16.9705624 0.109194235,17.1174587 C2.10162179,19.0620222 2.59423504,22.0780217 1.32407027,24.5554752 C0.616419837,25.8935938 0.600291554,27.4914873 1.28078805,28.8436171 C1.96128455,30.1957469 3.25421204,31.134822 4.75051655,31.3637397 C5.16358194,31.4185554 5.58207925,31.4185554 5.99514465,31.3637397 C7.3503558,31.2044591 8.70396545,31.6739297 9.66952481,32.6381199 L10.6116736,33.5852273 C10.7585699,33.7308196 10.9953558,33.7308196 11.1422521,33.5852273 L12.0943182,32.6331612 C13.0598776,31.668971 14.4134872,31.1995005 15.7686984,31.358781 C17.4928487,31.5581166 19.1857631,30.7871002 20.1671523,29.3555611 C21.1485415,27.924022 21.2572871,26.0669813 20.4496901,24.5306818 C19.1795253,22.0532283 19.6721386,19.0372288 21.6645661,17.0926653 C21.8009855,16.9443693 21.7966165,16.7149976 21.6546488,16.5720042 L21.6546488,16.5720042 Z M12.6943182,21.4612604 L9.05960746,21.4612604 L9.93233473,16.3339876 C9.02031343,15.8934736 8.53384619,14.8810554 8.75979755,13.8937452 C8.9857489,12.906435 9.86412749,12.2063693 10.8769628,12.2063693 C11.8897982,12.2063693 12.7681768,12.906435 12.9941281,13.8937452 C13.2200795,14.8810554 12.7336122,15.8934736 11.8215909,16.3339876 L12.6943182,21.4612604 Z" id="Shape" fill="#FFFFFF"></path>
    </g>
</svg>
