<svg xmlns="http://www.w3.org/2000/svg" viewBox="0 0 241.91 122.45" height="60" width="120"><defs><style>.a{fill:#ad9885}</style></defs><path class="a" d="M155.96 67.13h-14.39v-6.1h8.77v-2.58h-8.77v-5.14h13.73v-2.58h-16.61v18.99h17.27v-2.59zM177.83 68.07a5.41 5.41 0 0 0 1.74-4 4.8 4.8 0 0 0-3.21-4.72 4.39 4.39 0 0 0 2.24-3.89 4.29 4.29 0 0 0-1.31-3.07 6.43 6.43 0 0 0-4.67-1.68h-10.88v19H173a6.57 6.57 0 0 0 4.83-1.64zm-2.13-1.91a3.77 3.77 0 0 1-2.71 1h-8.43v-6h8.8a3.36 3.36 0 0 1 2.42 1 2.73 2.73 0 0 1 .83 1.94 2.93 2.93 0 0 1-.86 2.06zm-.87-8.23a2.91 2.91 0 0 1-2.11.77h-8.14v-5.39h7.8a3.49 3.49 0 0 1 2.56.85 2.54 2.54 0 0 1 .71 1.77 2.8 2.8 0 0 1-.82 2zM183.03 53.31h7.24v16.41h2.87V53.31h7.21v-2.58h-17.32v2.58zM220 58.13h-11.66v-7.4h-2.87v18.99h2.87v-9H220v9h2.85V50.73H220v7.4z"/><path class="a" d="M241.91 0H0v122.45h241.91V0zM119.46 119.45H3V3h116.46v116.45zm119.45 0H122.46V3h116.45v116.45z"/><path class="a" d="M83 59.69a12.8 12.8 0 0 1-2.45-15A9.43 9.43 0 0 0 73.65 31a9.54 9.54 0 0 0-2.52 0 9 9 0 0 1-7.41-2.57l-1.89-1.94a.76.76 0 0 0-1.07 0l-1.93 1.92A9 9 0 0 1 51.42 31 9.44 9.44 0 0 0 42 44.72a12.8 12.8 0 0 1-2.45 15 .76.76 0 0 0 0 1.07 12.8 12.8 0 0 1 2.45 15 9.43 9.43 0 0 0 6.91 13.73 9.54 9.54 0 0 0 2.51 0 9 9 0 0 1 7.41 2.57l1.9 1.91a.76.76 0 0 0 1.07 0l1.92-1.92a9 9 0 0 1 7.41-2.57 9.44 9.44 0 0 0 9.44-13.77 12.8 12.8 0 0 1 2.45-15 .76.76 0 0 0-.02-1.05zm-18.07 9.86H57.6l1.76-10.34a4.38 4.38 0 1 1 3.81 0z"/></svg>
